<?xml version="1.0" encoding="iso-8859-1"?>
<!-- Generator: Adobe Illustrator 19.0.0, SVG Export Plug-In . SVG Version: 6.00 Build 0)  -->
<svg version="1.1" id="Layer_1" xmlns="http://www.w3.org/2000/svg" xmlns:xlink="http://www.w3.org/1999/xlink" x="0px" y="0px"
	 viewBox="0 0 512 512" style="enable-background:new 0 0 512 512;" xml:space="preserve">
<g>
	<g>
		<path d="M405.333,64V53.333c0-5.896-4.771-10.667-10.667-10.667S384,47.438,384,53.333V64h-21.333V42.667
			C362.667,19.135,343.531,0,320,0H192c-23.531,0-42.667,19.135-42.667,42.667V64H128V53.333c0-5.896-4.771-10.667-10.667-10.667
			c-5.896,0-10.667,4.771-10.667,10.667V64C83.135,64,64,83.135,64,106.667v192C64,314.392,72.642,328,85.333,335.4v101.934
			C85.333,443.229,90.104,448,96,448h42.667c5.896,0,10.667-4.771,10.667-10.667v-96h23.257l19.618,98.094
			c1,4.979,5.375,8.573,10.458,8.573h10.667v53.333c0,5.896,4.771,10.667,10.667,10.667h64c5.896,0,10.667-4.771,10.667-10.667V448
			h10.667c5.083,0,9.458-3.594,10.458-8.573l19.618-98.094h23.257v96c0,5.896,4.771,10.667,10.667,10.667H416
			c5.896,0,10.667-4.771,10.667-10.667V335.4C439.358,328,448,314.392,448,298.667v-192C448,83.135,428.865,64,405.333,64z
			 M170.667,42.667c0-11.76,9.573-21.333,21.333-21.333h128c11.76,0,21.333,9.573,21.333,21.333V64H170.667V42.667z
			 M373.333,277.333H138.667c-5.896,0-10.667-4.771-10.667-10.667c0-5.896,4.771-10.667,10.667-10.667h234.667
			c5.896,0,10.667,4.771,10.667,10.667C384,272.563,379.229,277.333,373.333,277.333z M373.333,213.333H138.667
			c-5.896,0-10.667-4.771-10.667-10.667c0-5.896,4.771-10.667,10.667-10.667h234.667c5.896,0,10.667,4.771,10.667,10.667
			C384,208.563,379.229,213.333,373.333,213.333z M373.333,149.333H138.667c-5.896,0-10.667-4.771-10.667-10.667
			c0-5.896,4.771-10.667,10.667-10.667h234.667c5.896,0,10.667,4.771,10.667,10.667C384,144.563,379.229,149.333,373.333,149.333z"
			/>
	</g>
</g>
<g>
</g>
<g>
</g>
<g>
</g>
<g>
</g>
<g>
</g>
<g>
</g>
<g>
</g>
<g>
</g>
<g>
</g>
<g>
</g>
<g>
</g>
<g>
</g>
<g>
</g>
<g>
</g>
<g>
</g>
</svg>
